HIERARCHY
ROOT RootJoint
{
    OFFSET   0.000000   0.000000   0.000000
    CHANNELS 6 Xposition Yposition Zposition Xrotation Yrotation Zrotation
    JOINT pelvis_lowerback
    {
        OFFSET   0.000000   0.093605   0.000000
        CHANNELS 3 Xrotation Yrotation Zrotation
        JOINT lowerback_torso
        {
            OFFSET   0.000000   0.100000   0.000000
            CHANNELS 3 Xrotation Yrotation Zrotation
            JOINT torso_head
            {
                OFFSET   0.000000   0.282350   0.000000
                CHANNELS 3 Xrotation Yrotation Zrotation
                End Site
                {
                    OFFSET   0.000000   0.192650   0.000000
                }
            }
            JOINT rTorso_Clavicle
            {
                OFFSET  -0.001000   0.157500   0.000000
                CHANNELS 3 Xrotation Yrotation Zrotation
                JOINT rShoulder
                {
                    OFFSET  -0.117647   0.000000   0.000000
                    CHANNELS 3 Xrotation Yrotation Zrotation
                    JOINT rElbow
                    {
                        OFFSET  -0.245000   0.000000   0.000000
                        CHANNELS 3 Xrotation Yrotation Zrotation
                        JOINT rWrist
                        {
                            OFFSET  -0.240000   0.000000   0.000000
                            CHANNELS 3 Xrotation Yrotation Zrotation
                            End Site
                            {
                                OFFSET  -0.116353  -0.002500   0.000000
                            }
                        }
                    }
                }
            }
            JOINT lTorso_Clavicle
            {
                OFFSET   0.001000   0.157500   0.000000
                CHANNELS 3 Xrotation Yrotation Zrotation
                JOINT lShoulder
                {
                    OFFSET   0.117647   0.000000   0.000000
                    CHANNELS 3 Xrotation Yrotation Zrotation
                    JOINT lElbow
                    {
                        OFFSET   0.245000   0.000000   0.000000
                        CHANNELS 3 Xrotation Yrotation Zrotation
                        JOINT lWrist
                        {
                            OFFSET   0.240000   0.000000   0.000000
                            CHANNELS 3 Xrotation Yrotation Zrotation
                            End Site
                            {
                                OFFSET   0.116353  -0.002500   0.000000
                            }
                        }
                    }
                }
            }
        }
    }
    JOINT rHip
    {
        OFFSET  -0.100000  -0.051395   0.000000
        CHANNELS 3 Xrotation Yrotation Zrotation
        JOINT rKnee
        {
            OFFSET   0.000000  -0.410000   0.000000
            CHANNELS 3 Xrotation Yrotation Zrotation
            JOINT rAnkle
            {
                OFFSET   0.000000  -0.390000   0.000000
                CHANNELS 3 Xrotation Yrotation Zrotation
                JOINT rToeJoint
                {
                    OFFSET   0.000000  -0.050000   0.130000
                    CHANNELS 3 Xrotation Yrotation Zrotation
                    End Site
                    {
                        OFFSET  -0.010000   0.002000   0.060000
                    }
                }
            }
        }
    }
    JOINT lHip
    {
        OFFSET   0.100000  -0.051395   0.000000
        CHANNELS 3 Xrotation Yrotation Zrotation
        JOINT lKnee
        {
            OFFSET   0.000000  -0.410000   0.000000
            CHANNELS 3 Xrotation Yrotation Zrotation
            JOINT lAnkle
            {
                OFFSET   0.000000  -0.390000   0.000000
                CHANNELS 3 Xrotation Yrotation Zrotation
                JOINT lToeJoint
                {
                    OFFSET   0.000000  -0.050000   0.130000
                    CHANNELS 3 Xrotation Yrotation Zrotation
                    End Site
                    {
                        OFFSET   0.010000   0.002000   0.060000
                    }
                }
            }
        }
    }
}
MOTION
Frames: 11
Frame Time:   0.008333
 -2.711251   0.917000   4.160742   9.063249 -11.793456   0.818292   7.292296  -0.594184   2.133318  -1.760430   0.047478   2.042907   3.635104  -0.373726  -1.422126  -1.171496  -6.636503 -15.825918  15.321646   9.128655  36.725414  -0.761208  86.544675   0.770667  -1.951816   6.568669   5.141494   0.093280   1.036088  15.331816  11.546511 -18.656371 -23.593064 -179.895099 -74.930354 -179.853182  -2.043129  -7.578453  -6.435185 -32.568913 -14.064866  -8.560776  57.342205   0.004386   0.004648   9.920887 -19.264322   8.457994  -3.707897   0.003681   0.001318  -4.831256   6.989678   2.927497   5.380945   0.002797   0.006716 -10.851481  12.265422  10.812012   2.200563   0.000207  -0.000737
 -2.714267   0.917116   4.162167   9.085568 -12.479485   0.645201   7.560090  -0.767115   2.392512  -1.887686   0.044874   2.108298   3.569595  -0.151388  -1.468168  -1.303840  -6.857635 -15.466157  14.499488   8.825609  36.983064  -0.788490  86.987708   0.799746  -1.981012   6.623024   4.807187  -0.201911   0.892187  14.996696  10.244055 -18.891453 -23.696203 -179.914277 -74.871148 -179.880486  -2.053201  -7.760842  -6.150596 -32.726894 -13.747953  -8.283853  55.494944   0.004368   0.008235   8.886756 -19.213232   8.170359  -3.731309   0.003126   0.001004  -4.538093   7.102831   3.444462   5.182528   0.002862   0.006321 -10.855239  12.085533  10.427167   2.081937   0.000089   0.000218
 -2.717420   0.916722   4.163668   9.127449 -13.204738   0.479783   7.784813  -0.924627   2.608498  -2.032509   0.036241   2.167533   3.491639   0.066003  -1.512846  -1.408962  -7.053152 -15.042915  13.737833   8.565497  37.276447  -0.820962  87.391949   0.833520  -2.009884   6.611289   4.491638  -0.488930   0.710436  14.646782   8.997696 -19.127425 -23.814841 -179.930607 -74.855373 -179.903577  -2.039564  -7.761147  -5.727281 -32.903079 -13.408972  -8.062991  53.481073   0.003506   0.012756   7.908821 -19.155728   7.902552  -3.749063   0.002641   0.000774  -4.250564   7.220762   4.017144   5.064794   0.002724   0.005656 -10.730359  11.921197  10.097289   0.328531   0.001104   0.013055
 -2.720619   0.916443   4.165186   9.198768 -13.940425   0.380465   7.996913  -1.087628   2.760672  -2.183464   0.013676   2.204854   3.407502   0.269397  -1.560746  -1.491687  -7.229583 -14.564417  13.034100   8.338752  37.589608  -0.860418  87.765157   0.873882  -2.035756   6.575822   4.234791  -0.749722   0.519894  14.266223   7.827989 -19.361264 -23.952842 -179.944018 -74.850777 -179.922444  -2.017623  -7.697890  -5.291435 -33.116249 -13.072693  -7.936606  51.668446   0.002489   0.016794   6.972079 -19.097141   7.650642  -4.060601   0.004234   0.000675  -3.953183   7.308144   4.477497   4.868296   0.002837   0.005621 -10.938371  11.737010   9.751609   0.716771   0.001272   0.007570
 -2.723927   0.916142   4.166689   9.281127 -14.673802   0.305375   8.203847  -1.254136   2.885247  -2.319881  -0.021202   2.231084   3.325152   0.458873  -1.608603  -1.557987  -7.393500 -14.087649  12.385210   8.132995  37.899345  -0.914633  88.114612   0.928512  -2.062736   6.542886   4.034674  -0.989431   0.329797  13.896701   6.732563 -19.587411 -24.095147 -179.954841 -74.846619 -179.937623  -1.998510  -7.633996  -4.873649 -33.353598 -12.730643  -7.867384  49.807178   0.000951   0.020691   6.118253 -19.041816   7.418359  -4.059626   0.003385   0.000519  -3.670072   7.407456   4.911803   4.686252   0.002871   0.005499 -11.114162  11.584034   9.438283   0.989485   0.001172   0.004110
 -2.727377   0.915777   4.168190   9.363285 -15.398379   0.233833   8.409804  -1.421659   2.998106  -2.437342  -0.066152   2.253351   3.248204   0.635341  -1.654811  -1.613068  -7.549184 -13.630485  11.786223   7.939708  38.194194  -0.990922  88.440585   1.004770  -2.089326   6.509422   3.872316  -1.211319   0.144787  13.546454   5.707595 -19.802571 -24.235846 -179.963553 -74.841539 -179.949809  -1.982783  -7.581445  -4.482728 -33.620352 -12.395388  -7.835529  48.021348  -0.000828   0.023800   5.319922 -18.987683   7.202023  -4.055426   0.002686   0.000394  -3.387572   7.509673   5.343366   4.517177   0.002859   0.005319 -11.295217  11.447847   9.146960   1.211138   0.000998   0.001748
 -2.730989   0.915352   4.169701   9.443805 -16.105324   0.161060   8.613195  -1.590292   3.102725  -2.537730  -0.120471   2.273838   3.177267   0.799662  -1.698535  -1.659467  -7.699649 -13.197219  11.233245   7.754897  38.471277  -1.101402  88.743579   1.114869  -2.114596   6.469994   3.733478  -1.416914  -0.032898  13.216026   4.749259 -20.005627 -24.373324 -179.970571 -74.835762 -179.959596  -1.969796  -7.539600  -4.119960 -33.908877 -12.070209  -7.831465  46.336979  -0.002695   0.025947   4.574113 -18.935332   7.000357  -4.054715   0.002147   0.000302  -3.104693   7.612989   5.777237   4.359818   0.002814   0.005090 -11.482256  11.325913   8.875720   1.393015   0.000799   0.000178
 -2.734715   0.914910   4.171238   9.567022 -16.843622   0.108799   8.746659  -1.700888   3.189449  -2.677010  -0.185322   2.253066   3.061935   0.983093  -1.746485  -1.591500  -7.700245 -12.561598  10.543302   7.738250  38.735391  -0.676766  88.511926   0.685529  -2.100464   6.521389   3.425475  -1.498517  -0.320047  12.739771   3.722242 -20.198252 -24.592675 -179.989920 -75.461806 -179.981190  -1.915045  -7.837585  -3.689451 -33.822313 -11.870843  -7.757302  43.411276  -0.005058   0.034861   4.392028 -18.687165   7.087061  -4.052534   0.001700   0.000231  -2.964807   8.002532   6.198550   4.370435   0.002217   0.004041 -11.672950  11.289201   8.418498   1.458331   0.000731  -0.000112
 -2.738505   0.914179   4.172740   9.733147 -17.616951   0.152517   8.849018  -1.776393   3.188541  -2.835632  -0.217233   2.193718   2.926128   1.155371  -1.796594  -1.523613  -7.631422 -11.891858   9.883164   7.763031  39.017636  -0.409976  88.266784   0.414885  -2.076287   6.402046   3.141120  -1.559340  -0.625334  12.244691   2.763180 -20.378906 -24.822831 179.993163 -76.106666 -179.999134  -1.842425  -7.850588  -3.231092 -33.731287 -11.681869  -7.732661  40.396272  -0.007056   0.043886   4.214659 -18.449556   7.170489  -4.010901   0.000986   0.000138  -2.848357   8.393112   6.534576   4.398840   0.001684   0.003138 -11.932514  11.267780   7.998508   1.573414   0.000724  -0.000556
 -2.742388   0.913201   4.174199   9.925575 -18.383320   0.253606   8.941579  -1.832243   3.144730  -2.993675  -0.227881   2.109781   2.789534   1.316159  -1.848739  -1.460501  -7.534792 -11.232187   9.258348   7.806931  39.300624  -0.249799  88.039306   0.251861  -2.053236   6.267641   2.899096  -1.608595  -0.921625  11.756149   1.868561 -20.551188 -25.055625 179.980238 -76.717400 179.987578  -1.768975  -7.781412  -2.794587 -33.663478 -11.502038  -7.737638  37.514153  -0.009010   0.050558   4.045535 -18.227347   7.248025  -3.973220   0.000475   0.000060  -2.732972   8.754303   6.822447   4.415505   0.001293   0.002451 -12.250156  11.243491   7.602856   1.756412   0.000776  -0.001226
 -2.746420   0.912311   4.175672  10.119353 -19.022640   0.409594   9.047044  -1.911748   3.067375  -3.135350  -0.254718   2.008621   2.657585   1.464923  -1.901598  -1.397713  -7.438004 -10.578953   8.676281   7.853339  39.583323  -0.151545  87.825831   0.151508  -2.031339   6.134944   2.688589  -1.644837  -1.214067  11.265830   1.034452 -20.720891 -25.293505 179.971018 -77.290206 179.978499  -1.698615  -7.696609  -2.401914 -33.576104 -11.333390  -7.805334  34.802678  -0.011484   0.052827   3.886187 -18.020848   7.319637  -3.938976   0.000131   0.000022  -2.670411   9.184179   7.025350   4.475955   0.000866   0.001846 -12.454329  11.329146   7.202549   1.781535   0.000647  -0.001024
